<svg width="308" height="101" viewBox="0 0 308 101" fill="none" xmlns="http://www.w3.org/2000/svg">
<path d="M3.904 82V47.312H16.064V82H3.904ZM9.984 43.472C7.76533 43.472 5.97333 42.8533 4.608 41.616C3.24267 40.3787 2.56 38.8427 2.56 37.008C2.56 35.1733 3.24267 33.6373 4.608 32.4C5.97333 31.1627 7.76533 30.544 9.984 30.544C12.2027 30.544 13.9947 31.1413 15.36 32.336C16.7253 33.488 17.408 34.9813 17.408 36.816C17.408 38.736 16.7253 40.336 15.36 41.616C14.0373 42.8533 12.2453 43.472 9.984 43.472ZM24.5425 82V37.2H47.4545C53.3425 37.2 57.7372 38.288 60.6385 40.464C63.5398 42.5973 64.9905 45.4133 64.9905 48.912C64.9905 51.216 64.3718 53.2427 63.1345 54.992C61.9398 56.6987 60.2332 58.064 58.0145 59.088C55.8385 60.0693 53.2358 60.56 50.2065 60.56L51.4865 57.488C54.6438 57.488 57.3958 57.9787 59.7425 58.96C62.0892 59.8987 63.9025 61.2853 65.1825 63.12C66.5052 64.912 67.1665 67.1093 67.1665 69.712C67.1665 73.5947 65.5878 76.624 62.4305 78.8C59.3158 80.9333 54.7505 82 48.7345 82H24.5425ZM37.0865 72.848H47.7105C49.8865 72.848 51.5292 72.4853 52.6385 71.76C53.7905 70.992 54.3665 69.84 54.3665 68.304C54.3665 66.768 53.7905 65.6373 52.6385 64.912C51.5292 64.144 49.8865 63.76 47.7105 63.76H36.1905V54.992H45.7905C47.9238 54.992 49.5238 54.6293 50.5905 53.904C51.6572 53.1787 52.1905 52.0907 52.1905 50.64C52.1905 49.1893 51.6572 48.1227 50.5905 47.44C49.5238 46.7147 47.9238 46.352 45.7905 46.352H37.0865V72.848ZM87.746 82.576C84.93 82.576 82.3913 82.0213 80.13 80.912C77.9113 79.8027 76.162 78.0747 74.882 75.728C73.6447 73.3387 73.026 70.3307 73.026 66.704V47.312H85.186V64.72C85.186 67.408 85.6767 69.328 86.658 70.48C87.682 71.632 89.1113 72.208 90.946 72.208C92.1407 72.208 93.2287 71.9307 94.21 71.376C95.1913 70.8213 95.9807 69.9467 96.578 68.752C97.1753 67.5147 97.474 65.936 97.474 64.016V47.312H109.634V82H98.05V72.208L100.29 74.96C99.0953 77.52 97.3673 79.44 95.106 80.72C92.8447 81.9573 90.3913 82.576 87.746 82.576ZM132.571 82.576C129.413 82.576 126.533 81.8507 123.931 80.4C121.371 78.9067 119.323 76.8373 117.786 74.192C116.251 71.504 115.483 68.304 115.483 64.592C115.483 60.9227 116.251 57.7653 117.786 55.12C119.323 52.432 121.371 50.3627 123.931 48.912C126.533 47.4613 129.413 46.736 132.571 46.736C135.557 46.736 138.075 47.376 140.123 48.656C142.213 49.936 143.792 51.8987 144.859 54.544C145.925 57.1893 146.458 60.5387 146.458 64.592C146.458 68.7307 145.947 72.1227 144.923 74.768C143.899 77.4133 142.363 79.376 140.315 80.656C138.267 81.936 135.685 82.576 132.571 82.576ZM135.131 72.912C136.496 72.912 137.712 72.592 138.779 71.952C139.888 71.312 140.763 70.3733 141.403 69.136C142.043 67.856 142.363 66.3413 142.363 64.592C142.363 62.8427 142.043 61.3707 141.403 60.176C140.763 58.9387 139.888 58 138.779 57.36C137.712 56.72 136.496 56.4 135.131 56.4C133.723 56.4 132.464 56.72 131.355 57.36C130.288 58 129.435 58.9387 128.795 60.176C128.155 61.3707 127.835 62.8427 127.835 64.592C127.835 66.3413 128.155 67.856 128.795 69.136C129.435 70.3733 130.288 71.312 131.355 71.952C132.464 72.592 133.723 72.912 135.131 72.912ZM142.747 82V76.048L142.811 64.592L142.171 53.136V34.512H154.331V82H142.747ZM179.114 94.992C175.786 94.992 172.607 94.608 169.578 93.84C166.591 93.072 164.031 91.9413 161.898 90.448L166.314 81.936C167.765 83.088 169.557 83.984 171.69 84.624C173.866 85.3067 175.978 85.648 178.026 85.648C181.311 85.648 183.679 84.9227 185.13 83.472C186.581 82.064 187.306 79.9947 187.306 77.264V73.168L187.946 63.44L187.882 53.648V47.312H199.466V75.664C199.466 82.2347 197.695 87.0987 194.154 90.256C190.613 93.4133 185.599 94.992 179.114 94.992ZM177.002 80.208C173.93 80.208 171.093 79.5253 168.49 78.16C165.93 76.752 163.861 74.8107 162.282 72.336C160.746 69.8187 159.978 66.8533 159.978 63.44C159.978 60.0267 160.746 57.0827 162.282 54.608C163.861 52.0907 165.93 50.1493 168.49 48.784C171.093 47.4187 173.93 46.736 177.002 46.736C179.946 46.736 182.463 47.3333 184.554 48.528C186.645 49.68 188.223 51.4933 189.29 53.968C190.399 56.4427 190.954 59.6 190.954 63.44C190.954 67.28 190.399 70.4373 189.29 72.912C188.223 75.3867 186.645 77.2213 184.554 78.416C182.463 79.6107 179.946 80.208 177.002 80.208ZM179.882 70.544C181.333 70.544 182.613 70.2453 183.722 69.648C184.874 69.0507 185.77 68.2187 186.41 67.152C187.093 66.0853 187.434 64.848 187.434 63.44C187.434 62.032 187.093 60.7947 186.41 59.728C185.77 58.6613 184.874 57.8507 183.722 57.296C182.613 56.6987 181.333 56.4 179.882 56.4C178.431 56.4 177.13 56.6987 175.978 57.296C174.826 57.8507 173.909 58.6613 173.226 59.728C172.586 60.7947 172.266 62.032 172.266 63.44C172.266 64.848 172.586 66.0853 173.226 67.152C173.909 68.2187 174.826 69.0507 175.978 69.648C177.13 70.2453 178.431 70.544 179.882 70.544ZM225.455 82.576C221.359 82.576 217.775 81.808 214.703 80.272C211.674 78.6933 209.306 76.56 207.599 73.872C205.935 71.1413 205.103 68.048 205.103 64.592C205.103 61.136 205.914 58.064 207.535 55.376C209.199 52.6453 211.482 50.5333 214.383 49.04C217.284 47.504 220.548 46.736 224.175 46.736C227.588 46.736 230.703 47.44 233.519 48.848C236.335 50.2133 238.575 52.24 240.239 54.928C241.903 57.616 242.735 60.88 242.735 64.72C242.735 65.1467 242.714 65.6373 242.671 66.192C242.628 66.7467 242.586 67.2587 242.543 67.728H215.087V61.328H236.079L231.471 63.12C231.514 61.5413 231.215 60.176 230.575 59.024C229.978 57.872 229.124 56.976 228.015 56.336C226.948 55.696 225.69 55.376 224.239 55.376C222.788 55.376 221.508 55.696 220.399 56.336C219.332 56.976 218.5 57.8933 217.903 59.088C217.306 60.24 217.007 61.6053 217.007 63.184V65.04C217.007 66.7467 217.348 68.2187 218.031 69.456C218.756 70.6933 219.78 71.6533 221.103 72.336C222.426 72.976 224.004 73.296 225.839 73.296C227.546 73.296 228.996 73.0613 230.191 72.592C231.428 72.08 232.644 71.312 233.839 70.288L240.239 76.944C238.575 78.7787 236.527 80.1867 234.095 81.168C231.663 82.1067 228.783 82.576 225.455 82.576ZM263.83 82.576C259.392 82.576 255.936 81.488 253.462 79.312C250.987 77.0933 249.75 73.7653 249.75 69.328V39.568H261.91V69.2C261.91 70.4373 262.251 71.4187 262.934 72.144C263.616 72.8267 264.491 73.168 265.558 73.168C267.008 73.168 268.246 72.8053 269.27 72.08L272.278 80.592C271.254 81.2747 269.995 81.7653 268.502 82.064C267.008 82.4053 265.451 82.576 263.83 82.576ZM244.694 57.68V48.592H269.846V57.68H244.694Z" fill="#E7E7E7"/>
<rect width="101.86" height="20" fill="#7A63FF"/>
</svg>
